<?xml version="1.0" standalone="no"?>
<!DOCTYPE svg PUBLIC "-//W3C//DTD SVG 20010904//EN"
 "http://www.w3.org/TR/2001/REC-SVG-20010904/DTD/svg10.dtd">
<svg version="1.0" xmlns="http://www.w3.org/2000/svg"
 width="265.000000pt" height="265.000000pt" viewBox="0 0 265.000000 265.000000"
 preserveAspectRatio="xMidYMid meet">
<metadata>
Created by potrace 1.14, written by Peter Selinger 2001-2017
</metadata>
<g transform="translate(0.000000,265.000000) scale(0.100000,-0.100000)"
fill="#000000" stroke="none">
<path d="M1055 2595 c-344 -72 -629 -263 -829 -555 -47 -68 -126 -232 -155
-321 -119 -365 -60 -798 151 -1111 276 -408 718 -621 1200 -579 254 21 458
100 668 256 342 255 537 666 517 1092 -16 339 -139 616 -382 858 -162 163
-308 253 -522 324 -198 66 -444 79 -648 36z m483 -54 c309 -60 568 -221 755
-470 422 -560 312 -1324 -250 -1748 -134 -100 -282 -168 -468 -215 -122 -30
-386 -32 -515 -4 -240 52 -456 170 -630 345 -183 184 -302 410 -345 658 -19
111 -19 317 0 429 89 507 499 916 1010 1009 110 21 327 18 443 -4z"/>
<path d="M1300 2405 l0 -55 45 0 c25 0 45 5 45 10 0 6 -11 10 -25 10 -16 0
-25 6 -25 15 0 9 9 15 25 15 14 0 25 5 25 10 0 6 -11 10 -25 10 -14 0 -25 5
-25 10 0 6 11 10 25 10 14 0 25 5 25 10 0 6 -20 10 -45 10 l-45 0 0 -55z"/>
<path d="M1434 2447 c-39 -21 -46 -63 -16 -90 20 -18 72 -23 72 -7 0 6 -8 10
-19 10 -10 0 -24 7 -32 16 -17 20 0 49 30 49 11 0 21 5 22 10 1 15 -36 24 -57
12z"/>
<path d="M1200 2440 c0 -5 7 -10 15 -10 11 0 15 -11 15 -40 0 -34 3 -40 21
-40 19 0 20 4 14 40 -6 33 -4 40 9 40 9 0 16 5 16 10 0 6 -20 10 -45 10 -25 0
-45 -4 -45 -10z"/>
<path d="M1516 2409 c-10 -52 -7 -79 9 -79 8 0 15 9 15 20 0 14 7 20 21 20 17
0 20 -5 17 -25 -4 -19 -1 -25 13 -25 13 0 19 7 19 24 0 13 3 38 6 55 5 24 3
31 -9 31 -8 0 -17 -9 -20 -20 -7 -25 -37 -16 -37 11 0 31 -27 21 -34 -12z"/>
<path d="M1045 2421 c-10 -17 16 -101 31 -101 17 0 17 8 3 66 -11 43 -22 54
-34 35z"/>
<path d="M953 2384 c-15 -24 -15 -29 -2 -53 16 -29 61 -40 84 -21 21 17 8 32
-15 17 -16 -9 -23 -9 -35 3 -19 20 -9 60 16 60 11 0 19 5 19 10 0 22 -50 10
-67 -16z"/>
<path d="M1165 2403 c-53 -10 -65 -14 -65 -24 0 -12 63 -4 89 11 17 9 2 18
-24 13z"/>
<path d="M1700 2354 c-22 -56 -4 -94 44 -94 18 0 56 56 56 83 0 30 -28 18 -40
-18 -7 -20 -18 -35 -27 -35 -15 0 -15 12 2 68 11 32 -23 29 -35 -4z"/>
<path d="M855 2354 c-25 -25 -15 -49 23 -52 34 -3 45 -22 13 -22 -26 0 -37
-18 -17 -26 25 -10 68 23 64 49 -2 16 -12 24 -38 28 -31 6 -33 7 -12 14 12 4
22 11 22 16 0 15 -38 10 -55 -7z"/>
<path d="M1811 2286 c-28 -50 -20 -84 10 -45 l19 24 0 -31 c0 -20 6 -34 17
-38 19 -8 21 -5 52 46 16 26 18 38 10 44 -7 4 -18 -1 -26 -11 -12 -18 -13 -17
-13 6 0 26 -16 49 -35 49 -6 0 -21 -20 -34 -44z"/>
<path d="M687 2262 c-35 -38 -7 -102 43 -102 17 0 60 35 60 48 -1 21 -30 43
-49 37 -24 -7 -28 -25 -6 -25 8 0 15 -7 15 -16 0 -10 -7 -14 -22 -12 -32 4
-38 53 -9 63 12 3 21 11 21 16 0 16 -36 10 -53 -9z"/>
<path d="M1931 2218 c-22 -30 -28 -45 -20 -52 7 -8 19 -1 39 24 31 36 36 55
21 64 -5 4 -23 -13 -40 -36z"/>
<path d="M1170 2234 c-349 -65 -626 -298 -735 -619 -62 -184 -61 -427 5 -601
71 -190 194 -347 358 -455 94 -62 158 -92 268 -125 80 -25 104 -27 244 -27
139 0 164 3 243 27 324 97 561 341 648 666 30 111 33 329 5 430 -92 336 -324
581 -641 676 -75 22 -113 27 -230 29 -77 2 -151 1 -165 -1z m367 -40 c303 -75
553 -319 644 -629 21 -71 24 -100 24 -250 -1 -164 -2 -173 -33 -265 -43 -130
-111 -245 -200 -340 -117 -127 -231 -199 -402 -256 -80 -26 -96 -28 -255 -29
-193 0 -265 15 -398 81 -131 66 -242 158 -332 274 -191 248 -233 616 -102 905
89 198 234 350 422 443 200 100 410 122 632 66z"/>
<path d="M1285 1940 c-96 -16 -205 -46 -296 -85 -100 -42 -226 -116 -220 -130
2 -6 23 -16 46 -24 42 -13 46 -12 157 32 196 77 268 92 458 92 153 0 171 -2
240 -27 148 -52 251 -132 285 -223 37 -97 3 -249 -76 -340 -102 -116 -306
-235 -479 -279 -104 -26 -210 -42 -210 -32 0 4 124 150 277 324 152 174 283
325 291 335 14 16 8 17 -120 17 l-135 0 -144 -157 c-367 -399 -548 -604 -568
-641 -42 -79 69 -118 291 -102 371 27 676 155 881 369 157 165 211 340 158
512 -69 220 -304 352 -646 364 -71 2 -157 0 -190 -5z"/>
<path d="M580 1727 c0 -98 93 -171 290 -225 99 -28 269 -52 362 -52 l74 0 67
68 c37 37 67 70 67 73 0 3 -75 9 -167 12 -267 10 -491 57 -630 133 l-63 34 0
-43z"/>
<path d="M600 1566 c0 -35 7 -54 33 -88 58 -77 291 -174 467 -194 l56 -6 57
63 c31 34 57 66 57 71 0 4 -23 8 -50 8 -218 0 -456 65 -566 155 -23 19 -45 35
-48 35 -3 0 -6 -20 -6 -44z"/>
<path d="M567 1519 c-47 -72 -62 -123 -62 -214 1 -79 4 -97 30 -148 35 -71
115 -146 197 -188 79 -40 97 -32 23 10 -75 42 -151 119 -177 179 -31 69 -29
168 6 253 24 61 25 69 12 99 l-14 33 -15 -24z"/>
<path d="M640 1410 c0 -71 72 -155 174 -203 59 -28 179 -67 206 -67 18 0 100
88 100 107 0 6 -26 13 -57 16 -147 16 -312 79 -374 143 -41 42 -49 43 -49 4z"/>
<path d="M1325 650 c-27 -30 -7 -70 36 -70 41 0 33 -24 -9 -28 -43 -4 -41 -22
2 -22 45 0 66 22 66 70 0 65 -55 94 -95 50z m63 -27 c-2 -10 -12 -18 -23 -18
-11 0 -21 8 -23 18 -3 13 3 17 23 17 20 0 26 -4 23 -17z"/>
<path d="M1100 650 c-11 -7 -12 -12 -3 -18 6 -4 13 -27 15 -51 2 -25 9 -46 16
-49 9 -3 12 14 12 62 0 68 -7 77 -40 56z"/>
<path d="M1204 645 c-4 -8 -3 -22 0 -30 3 -9 0 -24 -6 -35 -9 -14 -9 -22 1
-34 16 -19 74 -21 89 -3 10 12 8 89 -3 107 -10 16 -75 12 -81 -5z m66 -20 c0
-16 -35 -21 -44 -6 -8 12 4 21 26 21 10 0 18 -7 18 -15z m8 -57 c-7 -20 -58
-23 -58 -4 0 11 10 16 31 16 20 0 29 -4 27 -12z"/>
<path d="M1440 650 c0 -5 11 -10 24 -10 34 0 38 -12 21 -54 -18 -43 -19 -56
-2 -56 7 0 21 24 31 53 10 28 21 58 23 65 4 8 -9 12 -46 12 -28 0 -51 -4 -51
-10z"/>
<path d="M1978 2173 c-15 -41 -15 -50 -3 -62 13 -13 27 -8 98 40 5 4 6 12 2
18 -5 9 -16 6 -40 -8 l-34 -20 9 25 c14 35 12 54 -3 54 -6 0 -20 -21 -29 -47z"/>
<path d="M607 2203 c-4 -3 0 -15 10 -25 21 -24 12 -32 -20 -17 -21 9 -30 9
-41 -1 -13 -10 -11 -17 17 -51 45 -54 78 -53 40 1 -16 22 -16 23 1 17 74 -29
91 -12 44 43 -35 40 -41 44 -51 33z"/>
<path d="M2068 2106 c-44 -39 -46 -45 -15 -74 38 -36 64 -27 30 10 -22 24 -8
36 16 14 11 -10 22 -13 25 -8 3 5 -1 15 -9 22 -25 21 -17 32 10 14 14 -9 28
-14 31 -11 6 6 -36 66 -46 66 -3 0 -22 -15 -42 -33z"/>
<path d="M477 2082 c-14 -13 -13 -20 11 -63 30 -53 47 -58 47 -13 0 24 4 29
24 29 42 0 33 20 -18 42 -44 18 -51 19 -64 5z m43 -32 c0 -5 -2 -10 -4 -10 -3
0 -8 5 -11 10 -3 6 -1 10 4 10 6 0 11 -4 11 -10z"/>
<path d="M2143 2020 c-51 -38 -55 -54 -12 -45 29 7 30 6 19 -15 -12 -22 -7
-50 9 -50 5 0 11 9 14 19 2 11 15 21 28 23 33 4 36 39 7 72 l-23 27 -42 -31z
m52 -21 c11 -17 -1 -21 -15 -4 -8 9 -8 15 -2 15 6 0 14 -5 17 -11z"/>
<path d="M416 2021 c-7 -10 58 -81 74 -81 20 0 9 27 -23 58 -35 34 -43 37 -51
23z"/>
<path d="M380 1966 c0 -8 13 -23 30 -33 22 -13 28 -22 24 -36 -4 -14 -2 -18 7
-15 25 8 21 39 -7 69 -30 31 -54 38 -54 15z"/>
<path d="M2225 1920 c-4 -6 -4 -25 0 -43 6 -30 5 -31 -9 -13 -8 10 -17 24 -19
30 -8 21 -19 -3 -13 -28 4 -16 16 -28 31 -32 33 -8 45 2 45 39 1 30 1 31 15
13 20 -26 31 -13 17 19 -12 26 -54 35 -67 15z"/>
<path d="M313 1875 l-22 -34 45 -30 c25 -17 47 -31 49 -31 2 0 13 16 25 36 26
41 17 60 -11 25 -24 -29 -37 -20 -21 14 14 30 -3 35 -24 8 -7 -10 -16 -15 -20
-11 -4 4 -1 15 6 23 8 10 10 19 4 25 -5 5 -18 -5 -31 -25z"/>
<path d="M2268 1812 c-38 -17 -51 -42 -23 -42 22 0 95 39 95 50 0 14 -29 11
-72 -8z"/>
<path d="M264 1789 c-4 -7 1 -16 10 -21 26 -15 20 -41 -8 -34 -16 4 -26 1 -29
-8 -7 -18 83 -59 98 -45 7 7 4 15 -7 23 -27 20 -22 38 9 34 44 -5 37 19 -13
41 -55 25 -51 24 -60 10z"/>
<path d="M2340 1760 c0 -15 -9 -22 -30 -26 -32 -7 -57 -29 -42 -38 5 -3 26 0
46 6 31 10 39 9 46 -2 16 -26 23 -1 11 40 -12 42 -31 54 -31 20z"/>
<path d="M206 1645 c-11 -25 -13 -42 -7 -48 7 -7 13 -3 19 13 9 23 9 23 38
-13 16 -21 32 -37 35 -37 12 0 31 82 21 92 -6 6 -12 -1 -17 -19 l-7 -28 -33
39 -33 40 -16 -39z"/>
<path d="M2354 1645 c-14 -14 -32 -25 -40 -25 -9 0 -14 -7 -12 -16 4 -20 118
-32 118 -13 0 6 -9 13 -20 16 -22 6 -26 18 -10 28 13 8 13 35 0 35 -6 0 -22
-11 -36 -25z"/>
<path d="M2088 743 c-23 -12 -26 -19 -23 -51 2 -20 5 -39 6 -42 1 -3 3 -9 3
-15 1 -5 10 -22 20 -37 10 -15 15 -35 12 -46 -11 -32 51 -81 68 -53 3 5 -1 14
-10 22 -38 31 -41 81 -3 72 10 -3 16 -10 13 -15 -10 -15 5 -58 21 -58 50 0 89
56 62 89 -7 8 -11 22 -9 33 2 12 -3 18 -15 18 -16 0 -18 6 -15 35 5 40 -18 56
-50 36 -15 -9 -20 -9 -24 3 -8 21 -26 24 -56 9z m94 -65 c-7 -7 -12 -8 -12 -2
0 14 12 26 19 19 2 -3 -1 -11 -7 -17z m48 -97 c0 -6 -4 -13 -10 -16 -5 -3 -10
1 -10 9 0 9 5 16 10 16 6 0 10 -4 10 -9z"/>
<path d="M464 716 c-3 -7 -4 -24 -3 -37 4 -42 -1 -59 -15 -59 -26 0 -39 -26
-25 -52 14 -27 51 -68 61 -68 4 0 22 14 40 30 18 17 38 30 44 30 17 0 24 26
11 39 -8 8 -7 11 6 11 9 0 17 7 17 15 0 8 -9 15 -20 15 -24 0 -25 8 -4 31 10
11 14 25 10 35 -6 15 -11 13 -39 -14 -43 -42 -57 -41 -50 3 5 28 2 35 -11 35
-9 0 -19 -6 -22 -14z"/>
<path d="M411 686 c-16 -19 -10 -51 9 -51 17 0 26 43 12 57 -5 5 -14 3 -21 -6z"/>
<path d="M358 606 c-8 -20 -9 -29 0 -38 16 -16 44 9 40 35 -5 31 -26 32 -40 3z"/>
<path d="M746 475 c-12 -32 -7 -46 17 -43 16 2 22 10 22 28 0 29 -29 40 -39
15z"/>
<path d="M1784 477 c-3 -10 1 -37 10 -59 14 -37 14 -43 1 -58 -20 -22 -19 -30
5 -30 28 0 27 -44 -2 -64 -21 -15 -22 -17 -5 -33 17 -17 19 -17 43 10 13 15
24 36 24 46 0 14 6 17 30 13 33 -5 100 37 100 63 0 12 -6 12 -41 0 -48 -17
-59 -18 -78 -6 -12 7 -10 14 7 36 32 41 9 63 -30 28 -17 -15 -18 -15 -18 4 0
12 -9 31 -19 44 -18 22 -20 23 -27 6z"/>
<path d="M697 444 c-11 -11 -8 -54 3 -54 6 0 10 -4 10 -9 0 -6 -15 -11 -32
-13 -25 -2 -34 -8 -36 -25 -4 -25 8 -29 38 -13 13 7 27 5 50 -6 17 -9 46 -17
63 -18 28 -1 32 2 29 21 -2 16 4 26 22 35 42 19 36 29 -27 42 -23 5 -29 2 -37
-19 -14 -36 -26 -31 -42 17 -13 41 -27 55 -41 42z"/>
<path d="M1044 355 c-3 -8 -3 -18 0 -23 3 -6 -6 -17 -20 -27 -19 -12 -25 -23
-21 -41 2 -13 -2 -29 -9 -35 -16 -13 -18 -45 -4 -54 5 -3 29 12 53 34 31 29
47 37 57 31 13 -8 13 -10 0 -10 -18 0 -50 -34 -50 -54 0 -10 19 -15 68 -18 37
-3 71 -3 76 0 5 3 -4 16 -20 29 -24 19 -26 23 -10 23 12 0 16 5 13 14 -4 9 1
17 12 21 10 3 23 17 29 30 6 14 16 25 22 25 17 0 7 45 -10 46 -8 1 -19 3 -25
4 -5 1 -29 1 -51 0 -23 -1 -45 3 -49 9 -9 16 -55 13 -61 -4z m51 -52 c-7 -21
-18 -39 -24 -41 -12 -4 3 40 22 66 15 20 15 14 2 -25z"/>
<path d="M1494 316 c-36 -16 -49 -32 -34 -41 21 -13 8 -34 -32 -50 -52 -21
-62 -34 -41 -57 15 -17 18 -17 52 4 19 12 62 27 95 33 63 11 94 37 66 55 -8 5
-25 7 -36 4 -27 -7 -39 10 -19 26 20 17 19 40 -2 40 -10 -1 -32 -7 -49 -14z"/>
</g>
</svg>
